%TF.GenerationSoftware,KiCad,Pcbnew,(6.0.7)*%
%TF.CreationDate,2023-03-06T16:25:38-05:00*%
%TF.ProjectId,joycon,6a6f7963-6f6e-42e6-9b69-6361645f7063,rev?*%
%TF.SameCoordinates,Original*%
%TF.FileFunction,Copper,L1,Top*%
%TF.FilePolarity,Positive*%
%FSLAX46Y46*%
G04 Gerber Fmt 4.6, Leading zero omitted, Abs format (unit mm)*
G04 Created by KiCad (PCBNEW (6.0.7)) date 2023-03-06 16:25:38*
%MOMM*%
%LPD*%
G01*
G04 APERTURE LIST*
%TA.AperFunction,WasherPad*%
%ADD10C,2.300000*%
%TD*%
%TA.AperFunction,ComponentPad*%
%ADD11R,1.700000X1.700000*%
%TD*%
%TA.AperFunction,ComponentPad*%
%ADD12O,1.700000X1.700000*%
%TD*%
%TA.AperFunction,SMDPad,CuDef*%
%ADD13R,0.300000X1.000000*%
%TD*%
%TA.AperFunction,SMDPad,CuDef*%
%ADD14R,0.300000X0.700000*%
%TD*%
%TA.AperFunction,Conductor*%
%ADD15C,0.250000*%
%TD*%
G04 APERTURE END LIST*
D10*
%TO.P,REF\u002A\u002A,*%
%TO.N,*%
X131100000Y-105000000D03*
%TD*%
%TO.P,REF\u002A\u002A,*%
%TO.N,*%
X148200000Y-89500000D03*
%TD*%
D11*
%TO.P,J3,1,Pin_1*%
%TO.N,Net-(J7-Pad1)*%
X142525000Y-89225000D03*
D12*
%TO.P,J3,2,Pin_2*%
%TO.N,Net-(J8-Pad1)*%
X139985000Y-89225000D03*
%TO.P,J3,3,Pin_3*%
%TO.N,Net-(J9-Pad1)*%
X137445000Y-89225000D03*
%TD*%
D11*
%TO.P,J2,1,Pin_1*%
%TO.N,Net-(J1-Pad1)*%
X130800000Y-99160000D03*
D12*
%TO.P,J2,2,Pin_2*%
%TO.N,Net-(J1-Pad2)*%
X130800000Y-96620000D03*
%TO.P,J2,3,Pin_3*%
%TO.N,Net-(J1-Pad3)*%
X130800000Y-94080000D03*
%TO.P,J2,4,Pin_4*%
%TO.N,GND*%
X130800000Y-91540000D03*
%TO.P,J2,5,Pin_5*%
%TO.N,Net-(J1-Pad5)*%
X130800000Y-89000000D03*
%TD*%
D11*
%TO.P,J7,1,Pin_1*%
%TO.N,Net-(J7-Pad1)*%
X148400000Y-102700000D03*
D12*
%TO.P,J7,2,Pin_2*%
%TO.N,GND*%
X148400000Y-105240000D03*
%TD*%
D11*
%TO.P,J8,1,Pin_1*%
%TO.N,Net-(J8-Pad1)*%
X144650000Y-105225000D03*
D12*
%TO.P,J8,2,Pin_2*%
%TO.N,GND*%
X142110000Y-105225000D03*
%TD*%
D11*
%TO.P,J9,1,Pin_1*%
%TO.N,Net-(J9-Pad1)*%
X138300000Y-105200000D03*
D12*
%TO.P,J9,2,Pin_2*%
%TO.N,GND*%
X135760000Y-105200000D03*
%TD*%
D13*
%TO.P,J1,MP2*%
%TO.N,N/C*%
X144360000Y-94950000D03*
%TO.P,J1,MP1*%
X147940000Y-94950000D03*
D14*
%TO.P,J1,5,Pin_5*%
%TO.N,Net-(J1-Pad5)*%
X145150000Y-97600000D03*
%TO.P,J1,4,Pin_4*%
%TO.N,GND*%
X145650000Y-97600000D03*
%TO.P,J1,3,Pin_3*%
%TO.N,Net-(J1-Pad3)*%
X146150000Y-97600000D03*
%TO.P,J1,2,Pin_2*%
%TO.N,Net-(J1-Pad2)*%
X146650000Y-97600000D03*
%TO.P,J1,1,Pin_1*%
%TO.N,Net-(J1-Pad1)*%
X147150000Y-97600000D03*
%TD*%
D15*
%TO.N,Net-(J1-Pad1)*%
X147150000Y-100150000D02*
X146140000Y-101160000D01*
X132800000Y-101160000D02*
X146140000Y-101160000D01*
X147150000Y-97600000D02*
X147150000Y-100150000D01*
X130800000Y-99160000D02*
X132800000Y-101160000D01*
%TO.N,Net-(J1-Pad2)*%
X130800000Y-96620000D02*
X134540000Y-100360000D01*
X134540000Y-100360000D02*
X144812792Y-100360000D01*
X146650000Y-98522792D02*
X146650000Y-97600000D01*
X144812792Y-100360000D02*
X146650000Y-98522792D01*
%TO.N,Net-(J1-Pad3)*%
X144976396Y-99560000D02*
X146150000Y-98386396D01*
X130800000Y-94080000D02*
X136280000Y-99560000D01*
X146150000Y-98386396D02*
X146150000Y-97600000D01*
X136280000Y-99560000D02*
X144976396Y-99560000D01*
%TO.N,Net-(J1-Pad5)*%
X130800000Y-89000000D02*
X139400000Y-97600000D01*
X139400000Y-97600000D02*
X145150000Y-97600000D01*
%TO.N,GND*%
X137920000Y-98660000D02*
X145240000Y-98660000D01*
X145650000Y-97938604D02*
X145625000Y-97963604D01*
X145650000Y-98250000D02*
X145650000Y-97600000D01*
X145240000Y-98660000D02*
X145650000Y-98250000D01*
X130800000Y-91540000D02*
X137920000Y-98660000D01*
X145650000Y-97600000D02*
X145650000Y-97938604D01*
%TD*%
M02*
