%TF.GenerationSoftware,KiCad,Pcbnew,(6.0.7)*%
%TF.CreationDate,2023-03-06T16:25:38-05:00*%
%TF.ProjectId,joycon,6a6f7963-6f6e-42e6-9b69-6361645f7063,rev?*%
%TF.SameCoordinates,Original*%
%TF.FileFunction,Copper,L2,Bot*%
%TF.FilePolarity,Positive*%
%FSLAX46Y46*%
G04 Gerber Fmt 4.6, Leading zero omitted, Abs format (unit mm)*
G04 Created by KiCad (PCBNEW (6.0.7)) date 2023-03-06 16:25:38*
%MOMM*%
%LPD*%
G01*
G04 APERTURE LIST*
%TA.AperFunction,WasherPad*%
%ADD10C,2.300000*%
%TD*%
%TA.AperFunction,ComponentPad*%
%ADD11R,1.700000X1.700000*%
%TD*%
%TA.AperFunction,ComponentPad*%
%ADD12O,1.700000X1.700000*%
%TD*%
%TA.AperFunction,Conductor*%
%ADD13C,0.250000*%
%TD*%
G04 APERTURE END LIST*
D10*
%TO.P,REF\u002A\u002A,*%
%TO.N,*%
X131100000Y-105000000D03*
%TD*%
%TO.P,REF\u002A\u002A,*%
%TO.N,*%
X148200000Y-89500000D03*
%TD*%
D11*
%TO.P,J3,1,Pin_1*%
%TO.N,Net-(J7-Pad1)*%
X142525000Y-89225000D03*
D12*
%TO.P,J3,2,Pin_2*%
%TO.N,Net-(J8-Pad1)*%
X139985000Y-89225000D03*
%TO.P,J3,3,Pin_3*%
%TO.N,Net-(J9-Pad1)*%
X137445000Y-89225000D03*
%TD*%
D11*
%TO.P,J2,1,Pin_1*%
%TO.N,Net-(J1-Pad1)*%
X130800000Y-99160000D03*
D12*
%TO.P,J2,2,Pin_2*%
%TO.N,Net-(J1-Pad2)*%
X130800000Y-96620000D03*
%TO.P,J2,3,Pin_3*%
%TO.N,Net-(J1-Pad3)*%
X130800000Y-94080000D03*
%TO.P,J2,4,Pin_4*%
%TO.N,GND*%
X130800000Y-91540000D03*
%TO.P,J2,5,Pin_5*%
%TO.N,Net-(J1-Pad5)*%
X130800000Y-89000000D03*
%TD*%
D11*
%TO.P,J7,1,Pin_1*%
%TO.N,Net-(J7-Pad1)*%
X148400000Y-102700000D03*
D12*
%TO.P,J7,2,Pin_2*%
%TO.N,GND*%
X148400000Y-105240000D03*
%TD*%
D11*
%TO.P,J8,1,Pin_1*%
%TO.N,Net-(J8-Pad1)*%
X144650000Y-105225000D03*
D12*
%TO.P,J8,2,Pin_2*%
%TO.N,GND*%
X142110000Y-105225000D03*
%TD*%
D11*
%TO.P,J9,1,Pin_1*%
%TO.N,Net-(J9-Pad1)*%
X138300000Y-105200000D03*
D12*
%TO.P,J9,2,Pin_2*%
%TO.N,GND*%
X135760000Y-105200000D03*
%TD*%
D13*
%TO.N,Net-(J7-Pad1)*%
X148400000Y-102700000D02*
X148400000Y-95100000D01*
X148400000Y-95100000D02*
X142525000Y-89225000D01*
%TO.N,Net-(J8-Pad1)*%
X139985000Y-99460000D02*
X139985000Y-89225000D01*
X144650000Y-104125000D02*
X139985000Y-99460000D01*
X144650000Y-105225000D02*
X144650000Y-104125000D01*
%TO.N,Net-(J9-Pad1)*%
X137445000Y-104345000D02*
X138300000Y-105200000D01*
X137445000Y-89225000D02*
X137445000Y-104345000D01*
%TO.N,GND*%
X142110000Y-105225000D02*
X143285000Y-106400000D01*
X143285000Y-106400000D02*
X147240000Y-106400000D01*
X147240000Y-106400000D02*
X148400000Y-105240000D01*
X136935000Y-106375000D02*
X140960000Y-106375000D01*
X135760000Y-105200000D02*
X136935000Y-106375000D01*
X140960000Y-106375000D02*
X142110000Y-105225000D01*
X134490000Y-105200000D02*
X135760000Y-105200000D01*
X129163557Y-99873557D02*
X134490000Y-105200000D01*
X130800000Y-91540000D02*
X133215000Y-89125000D01*
X129163557Y-93176443D02*
X130800000Y-91540000D01*
X129163557Y-99873557D02*
X129163557Y-93176443D01*
%TD*%
M02*
